<svg viewBox="0 0 100 89.10735552180437"><g transform="translate(-2.9954871816513466, -8.441602520855668) scale(0.2070136094643529)" fill="#111111"><g xmlns="http://www.w3.org/2000/svg"><path d="M446.923,241.049c0.563-4.563,0.881-9.169,0.915-13.719c0.189-17.409-3.255-34.26-10.227-50.1   c3.947-4.041,6.569-9.379,7.153-15.311c4.035-2.223,7.109-5.789,8.777-9.974c8.272-4.457,13.395-12.991,13.395-22.425   c0-3.987-0.925-7.875-2.675-11.368c3.934-4.498,6.326-10.382,6.326-16.817c0-6.726-2.548-12.988-7.198-17.767   c0.389-1.768,0.599-3.603,0.599-5.486c0-13.98-8.793-24.323-21.194-25.381c-3.011-7.004-9.974-11.923-18.068-11.923   c-3.27,0-6.459,0.811-9.312,2.355c-2.019-0.653-4.194-0.995-6.374-0.995c-11.608,0-21.053,9.436-21.053,21.035v99.37   c0,11.596,9.444,21.03,21.053,21.03c0.621,0,1.233-0.04,1.84-0.093c2.718,0.954,5.568,1.452,8.488,1.452   c4.906,0,9.491-1.396,13.385-3.806c6.197,14.622,9.258,30.131,9.083,46.149c-0.031,4.121-0.306,8.284-0.792,12.414   c-4.099-0.76-8.316-1.177-12.632-1.177c-38.109,0-69.114,31.003-69.114,69.113c0,22.382,7.175,33.127,14.771,44.503   c8.151,12.209,16.58,24.833,18.274,54.38c0.083,1.457,1.202,2.61,2.614,2.791c-0.135,0.572-0.214,1.165-0.214,1.777v6.452H276.655   c-3.141,0-5.696-2.556-5.696-5.696V381.22c0-1.657-1.343-3-3-3h-34.125c-12.025,0-21.808-9.783-21.808-21.808v-43.446   c0-1.634-1.308-2.968-2.942-2.999l-20-0.388c-2.672-0.045-5.079-1.452-6.44-3.765c-1.357-2.307-1.418-5.086-0.161-7.442   l21.815-41.151c5.082-9.599,7.768-20.368,7.768-31.143c0-49.297,30.975-92.594,77.333-108.581c0.184,0.225,0.375,0.444,0.566,0.663   c-1.755,3.539-2.682,7.425-2.682,11.36c0,9.431,5.142,17.977,13.442,22.446c1.663,4.173,4.72,7.725,8.733,9.938   c1.264,12.908,12.188,23.028,25.434,23.028c2.88,0,5.731-0.498,8.487-1.452c0.608,0.053,1.22,0.093,1.842,0.093   c11.605,0,21.048-9.434,21.048-21.03v-99.37c0-11.599-9.442-21.035-21.048-21.035c-2.236,0-4.389,0.334-6.418,0.994   c-2.849-1.544-6.037-2.354-9.308-2.354c-8.092,0-15.053,4.919-18.063,11.923c-12.403,1.056-21.198,11.4-21.198,25.382   c0,1.883,0.211,3.716,0.6,5.484c-4.653,4.777-7.203,11.04-7.203,17.769c0,3.916,0.887,7.628,2.465,10.949   c-22.534,8.066-41.946,22.472-56.325,41.87c-15.509,20.922-23.706,45.793-23.706,71.924c0,9.8-2.445,19.598-7.069,28.333   l-21.81,41.142c-2.246,4.208-2.139,9.182,0.286,13.303c2.429,4.129,6.732,6.642,11.502,6.722l17.051,0.33v40.504   c0,15.333,12.475,27.808,27.808,27.808h31.125v27.612c0,6.449,5.247,11.696,11.696,11.696h118.196   c0.349,2.207,1.622,4.107,3.415,5.281c-0.389,0.922-0.605,1.935-0.605,2.998v11.235c-0.001,2.067,0.807,4.012,2.273,5.475   c1.463,1.459,3.402,2.263,5.463,2.263h1.092c0.795,11.403,10.322,20.439,21.926,20.439c11.584,0,21.093-9.036,21.886-20.439h1.142   c4.263,0,7.731-3.471,7.731-7.736v-11.236c0-1.063-0.216-2.077-0.606-3c2.115-1.387,3.518-3.778,3.518-6.496v-11.235   c0-0.614-0.079-1.208-0.215-1.781c1.395-0.196,2.495-1.343,2.577-2.788c1.694-29.547,10.134-42.171,18.295-54.38   c7.604-11.376,14.788-22.121,14.788-44.503C497.532,275.926,476.073,249.163,446.923,241.049z M427.06,159.543   c-1.657,0-3,1.343-3,3c0,8.288-6.736,15.03-15.017,15.03c-8.3,0-15.053-6.743-15.053-15.03v-99.37   c0-8.29,6.753-15.035,15.053-15.035c1.93,0,3.84,0.371,5.523,1.071c0.913,0.379,1.955,0.285,2.785-0.252   c2.199-1.426,4.75-2.18,7.377-2.18c7.531,0,13.659,6.127,13.659,13.659c0,6.765-5.051,12.583-11.748,13.532   c-1.641,0.232-2.782,1.75-2.55,3.391c0.213,1.498,1.497,2.58,2.967,2.58c0.141,0,0.282-0.01,0.425-0.03   c9.638-1.366,16.906-9.737,16.906-19.472c0-0.497-0.038-0.984-0.075-1.472c8.21,1.674,13.677,9.066,13.677,19.117   c0,10.771-8.755,19.533-19.516,19.533c-1.657,0-3,1.343-3,3s1.343,3,3,3c9.75,0,18.236-5.503,22.531-13.566   c2.328,3.266,3.584,7.161,3.584,11.286c0,10.785-8.755,19.559-19.516,19.559c-1.657,0-3,1.343-3,3s1.343,3,3,3   c5.382,0,10.378-1.682,14.498-4.544c0.892,2.255,1.366,4.684,1.366,7.17c0,5.445-2.233,10.499-6.045,14.117   c-0.559-10.341-9.122-18.588-19.6-18.588c-1.657,0-3,1.343-3,3s1.343,3,3,3c7.529,0,13.654,6.125,13.654,13.654   c0,3.892-1.681,7.547-4.478,10.097c-2.171-11.893-12.595-20.938-25.097-20.938c-1.657,0-3,1.343-3,3s1.343,3,3,3   c10.763,0,19.52,8.764,19.52,19.537c0,9.693-7.1,17.737-16.364,19.254c4.599-3.861,7.533-9.647,7.533-16.11   C430.06,160.886,428.717,159.543,427.06,159.543z M293.222,90.043c4.3,8.066,12.801,13.572,22.568,13.572c1.657,0,3-1.343,3-3   s-1.343-3-3-3c-10.782,0-19.555-8.763-19.555-19.533c0-10.052,5.469-17.445,13.681-19.117c-0.036,0.488-0.075,0.975-0.075,1.472   c0,9.734,7.264,18.105,16.897,19.472c0.143,0.021,0.284,0.03,0.425,0.03c1.47,0,2.754-1.082,2.967-2.579   c0.232-1.641-0.909-3.159-2.549-3.392c-6.693-0.95-11.74-6.767-11.74-13.532c0-7.532,6.125-13.659,13.654-13.659   c2.628,0,5.177,0.753,7.371,2.178c0.829,0.539,1.872,0.634,2.785,0.254c1.712-0.711,3.586-1.072,5.569-1.072   c8.298,0,15.048,6.745,15.048,15.035v99.37c0,8.288-6.75,15.03-15.048,15.03c-8.305,0-15.062-6.743-15.062-15.03   c0-1.657-1.343-3-3-3s-3,1.343-3,3c0,6.461,2.938,12.245,7.544,16.106c-9.27-1.528-16.371-9.566-16.371-19.25   c0-10.773,8.774-19.537,19.559-19.537c1.657,0,3-1.343,3-3s-1.343-3-3-3c-12.514,0-22.949,9.035-25.132,20.918   c-2.774-2.542-4.442-6.186-4.442-10.076c0-7.529,6.125-13.654,13.653-13.654c1.657,0,3-1.343,3-3s-1.343-3-3-3   c-10.486,0-19.056,8.262-19.601,18.616c-3.84-3.627-6.089-8.694-6.089-14.144c0-2.451,0.478-4.879,1.379-7.162   c4.119,2.857,9.112,4.536,14.491,4.536c1.657,0,3-1.343,3-3s-1.343-3-3-3c-5.2,0-9.919-2.06-13.422-5.393   c10.46-2.942,21.29-4.398,32.181-4.288c0.01,0,0.019,0,0.028,0c1.644,0,2.984-1.325,2.999-2.973   c0.015-1.657-1.316-3.012-2.973-3.027c-12.281-0.115-24.407,1.645-36.1,5.18c-1.421-2.711-2.236-5.789-2.236-9.058   C289.632,97.206,290.89,93.31,293.222,90.043z M412.073,409.336h31.528h0.035h0.001h10.713c0.941,0,1.736,0.797,1.736,1.74v11.235   c0,0.954-0.795,1.76-1.736,1.76h-51.872c-0.939,0-1.732-0.806-1.732-1.76v-11.235c0-0.943,0.793-1.74,1.731-1.74H412.073z    M428.415,465.22c-8.295,0-15.135-6.348-15.913-14.439h31.786C443.512,458.872,436.689,465.22,428.415,465.22z M453.175,443.044   c0,0.957-0.776,1.736-1.731,1.736h-4.117h-37.814h-4.115c-0.46,0-0.896-0.182-1.226-0.511c-0.329-0.328-0.511-0.764-0.511-1.226   v-11.236c0-0.957,0.779-1.735,1.736-1.735h46.047c0.955,0,1.731,0.778,1.731,1.735V443.044z M477.756,348.794   c-7.954,11.899-16.938,25.338-19.11,54.542h-4.295h-7.678l1.089-93.326c0.02-1.657-1.309-3.016-2.965-3.035   c-1.63-0.058-3.016,1.309-3.035,2.965l-1.089,93.396h-25.568l0.942-93.908c0.017-1.657-1.313-3.014-2.97-3.03   c-0.011,0-0.021,0-0.031,0c-1.643,0-2.982,1.323-2.999,2.97l-0.943,93.969h-6.625h-4.327c-2.173-29.203-11.145-42.641-19.09-54.54   c-7.383-11.058-13.76-20.608-13.76-41.171c0-34.801,28.313-63.113,63.114-63.113c34.803,0,63.117,28.312,63.117,63.113   C491.532,328.187,485.148,337.736,477.756,348.794z"></path><path d="M452.505,274.778c-0.582-0.674-1.407-1.064-2.326-1.037c-0.891,0.017-1.729,0.429-2.285,1.124l-8.059,10.063l-8.019-10.058   c-0.556-0.696-1.392-1.11-2.283-1.129c-0.903-0.059-1.745,0.359-2.328,1.032l-8.488,9.776l-8.445-9.771   c-0.582-0.674-1.385-1.064-2.326-1.037c-0.891,0.017-1.728,0.428-2.285,1.124l-10.407,12.994c-1.035,1.293-0.827,3.181,0.467,4.217   c0.553,0.443,1.215,0.658,1.873,0.658c0.88,0,1.751-0.385,2.344-1.125l8.153-10.18l8.353,9.663   c0.047,0.055,0.104,0.096,0.155,0.146c0.051,0.051,0.093,0.109,0.148,0.157c0.023,0.02,0.049,0.032,0.072,0.051   c0.083,0.068,0.171,0.126,0.26,0.184c0.079,0.052,0.157,0.106,0.24,0.149c0.086,0.045,0.175,0.08,0.265,0.116   c0.093,0.038,0.185,0.078,0.281,0.106c0.085,0.025,0.171,0.039,0.257,0.057c0.104,0.021,0.206,0.043,0.311,0.053   c0.085,0.008,0.17,0.006,0.256,0.006c0.106,0.001,0.211,0.003,0.317-0.007c0.086-0.008,0.17-0.027,0.255-0.043   c0.105-0.019,0.208-0.038,0.311-0.068c0.082-0.024,0.161-0.059,0.241-0.09c0.102-0.04,0.203-0.08,0.3-0.131   c0.075-0.04,0.146-0.089,0.219-0.136c0.095-0.061,0.189-0.122,0.277-0.195c0.022-0.018,0.047-0.029,0.069-0.048   c0.054-0.047,0.094-0.102,0.144-0.152c0.052-0.052,0.111-0.094,0.16-0.151l8.395-9.668l8.112,10.175   c0.005,0.006,0.012,0.01,0.017,0.017c0.133,0.164,0.282,0.318,0.454,0.455c0.004,0.003,0.008,0.005,0.011,0.008   c0.025,0.02,0.053,0.034,0.079,0.053c0.142,0.106,0.29,0.197,0.444,0.274c0.054,0.027,0.109,0.049,0.164,0.073   c0.139,0.06,0.28,0.108,0.425,0.145c0.053,0.014,0.105,0.029,0.159,0.04c0.196,0.039,0.393,0.065,0.591,0.065   c0.001,0,0.001,0,0.002,0s0.001,0,0.002,0c0.197,0,0.393-0.026,0.588-0.065c0.055-0.011,0.108-0.027,0.162-0.041   c0.142-0.037,0.28-0.084,0.417-0.142c0.058-0.024,0.115-0.047,0.171-0.075c0.152-0.076,0.298-0.166,0.439-0.271   c0.026-0.019,0.055-0.033,0.08-0.053c0.003-0.003,0.007-0.004,0.01-0.007c0.172-0.137,0.322-0.29,0.455-0.454   c0.005-0.006,0.012-0.01,0.017-0.017l8.153-10.181l8.356,9.664c1.084,1.254,2.979,1.391,4.231,0.308   c1.254-1.084,1.391-2.979,0.308-4.231L452.505,274.778z"></path><path d="M179.916,147.501c0-45.615-37.099-82.726-82.7-82.726c-45.626,0-82.746,37.11-82.746,82.725   c0,45.626,37.12,82.746,82.746,82.746c10.805,0,21.292-2.058,31.193-6.119l32.284,15.787c0.417,0.204,0.868,0.305,1.316,0.305   c0.587,0,1.172-0.172,1.676-0.511c0.889-0.599,1.391-1.626,1.317-2.695l-2.64-38.511   C173.851,183.816,179.916,166.208,179.916,147.501z M156.955,195.665c-0.472,0.587-0.707,1.331-0.656,2.082l2.361,34.496   l-28.832-14.103c-0.417-0.205-0.869-0.307-1.322-0.307c-0.403,0-0.806,0.081-1.185,0.244c-9.523,4.094-19.652,6.169-30.105,6.169   c-42.318,0-76.746-34.428-76.746-76.746c0-42.306,34.428-76.725,76.746-76.725c42.292,0,76.7,34.419,76.7,76.726   C173.916,165.219,168.051,181.874,156.955,195.665z"></path><path d="M126.408,133.611c-10.41,0-18.879,8.478-18.879,18.898c0,10.409,8.469,18.877,18.879,18.877   c10.432,0,18.919-8.468,18.919-18.877C145.327,142.088,136.84,133.611,126.408,133.611z M126.408,165.386   c-7.102,0-12.879-5.776-12.879-12.877c0-7.112,5.778-12.898,12.879-12.898c7.124,0,12.919,5.786,12.919,12.898   C139.327,159.609,133.532,165.386,126.408,165.386z"></path><path d="M67.978,133.611c-10.429,0-18.914,8.478-18.914,18.898c0,10.409,8.485,18.877,18.914,18.877   c10.41,0,18.879-8.468,18.879-18.877C86.856,142.088,78.387,133.611,67.978,133.611z M67.978,165.386   c-7.121,0-12.914-5.776-12.914-12.877c0-7.112,5.793-12.898,12.914-12.898c7.101,0,12.878,5.786,12.879,12.898   C80.857,159.609,75.08,165.386,67.978,165.386z"></path></g></g></svg>