<svg viewBox="0 0 100 89.10735552180437">
<g featurekey="nameFeature-0" transform="matrix(1.776199078699718,0,0,1.776199078699718,118.9342764873831,-2.3143889443966152)" fill="#000000"><path d="M14.84 12 c6.44 0 10.56 2.6 10.56 7.92 c0 5.8 -4.88 9.8 -12.4 9.8 l-5.28 0 l0 8 c0 1.44 1.4 1.88 3.04 2.08 l0 0.2 l-10.16 0 l0 -0.2 c1.64 -0.2 3.04 -0.64 3.04 -2.08 l0 -23.44 c0 -1.44 -1.4 -1.88 -3.04 -2.08 l0 -0.2 l14.24 0 z M13.96 29 c5.2 0 7.44 -1.48 7.44 -7.56 c0 -4.32 -1.16 -8.8 -8.68 -8.8 l-5 0 l0 15.48 c2.2 0.6 4.36 0.88 6.24 0.88 z M46.68 36 l0.2 0.16 c-1.2 2.24 -4.44 4.12 -8.56 4.12 c-5.56 0 -10.12 -3.48 -10.12 -9.52 c0 -6.44 5.28 -10.4 11.08 -10.4 c8.32 0 9.24 8.52 4.24 8.52 l-11.44 0 c0.04 5.48 3.16 9.64 7.96 9.64 c2.12 0 5.4 -0.8 6.64 -2.52 z M37.84 21.08 c-3.24 0 -5.56 2.64 -5.76 7.16 l9.84 -0.12 c2.44 -0.04 1.12 -7.04 -4.08 -7.04 z M68.72 36.72 c0 2.16 0.36 2.84 1.56 3.64 l0 0.12 l-6.24 -1.24 s0.04 0 0.04 -0.04 c-1.28 0.68 -2.88 1.08 -4.76 1.08 c-5.56 0 -9.64 -3.4 -9.64 -9.2 c0 -5.76 4.08 -10.72 12.4 -10.72 c2.56 0 4.64 0.48 6.64 1.48 l0 14.88 z M53.56 28.92 c0 5.72 3.48 10.24 8.08 10.24 c1.56 0 2.52 -0.52 3.32 -1.4 c0.04 -0.4 0.08 -0.92 0.08 -1.56 l0 -12.88 c-1.2 -1.28 -2.76 -2.2 -4.96 -2.2 c-4.12 0 -6.52 3.08 -6.52 7.8 z M83.75999999999999 40.28 c-5.56 0 -10.28 -3.48 -10.28 -9.56 c0 -6.4 5.16 -10.36 11.12 -10.36 c3.24 0 5.68 1.16 6.92 2.68 l-3.72 5.6 l-0.08 0 c1.68 -4.28 -0.4 -7.64 -4.32 -7.6 c-3.6 0 -6.04 2.88 -6.04 7.72 c0 5.52 3.2 9.76 8.08 9.76 c1.92 0 4.6 -0.64 5.84 -2.28 l0.2 0.16 c-1.2 2.16 -3.8 3.88 -7.72 3.88 z M112.99999999999999 36 l0.2 0.16 c-1.2 2.24 -4.44 4.12 -8.56 4.12 c-5.56 0 -10.12 -3.48 -10.12 -9.52 c0 -6.44 5.28 -10.4 11.08 -10.4 c8.32 0 9.24 8.52 4.24 8.52 l-11.44 0 c0.04 5.48 3.16 9.64 7.96 9.64 c2.12 0 5.4 -0.8 6.64 -2.52 z M104.15999999999998 21.08 c-3.24 0 -5.56 2.64 -5.76 7.16 l9.84 -0.12 c2.44 -0.04 1.12 -7.04 -4.08 -7.04 z"></path></g>
</svg>