<svg xmlns="http://www.w3.org/2000/svg"  viewBox="0 0 64 64" width="64px" height="64px"><path d="M 31.298828 6.7910156 C 23.192699 7.168871 15.952976 14.361744 15.523438 22.464844 C 15.262182 27.394693 17.166896 31.898776 20.367188 35.09375 C 21.728808 36.452693 22.58883 38.256027 22.595703 40.107422 C 22.609693 43.378617 24.885934 46 27.595703 46 L 32 46 A 1.0001 1.0001 0 0 0 33 45 L 33 32.347656 C 34.10301 32.19285 35.181274 31.861231 36.0625 31.15625 C 37.211618 30.236956 38 28.777778 38 27 A 1.0001 1.0001 0 1 0 36 27 C 36 28.222222 35.538382 29.013044 34.8125 29.59375 C 34.344712 29.96798 33.646393 30.034393 33 30.177734 L 33 27 C 33 24.583333 31.283333 23 29.5 23 C 27.716667 23 26 24.583333 26 27 C 26 28.777778 26.788382 30.236956 27.9375 31.15625 C 28.818726 31.861231 29.89699 32.19285 31 32.347656 L 31 44 L 27.595703 44 C 26.265472 44 24.605714 42.440414 24.595703 40.099609 C 24.586603 37.641004 23.469628 35.362791 21.78125 33.677734 C 18.963542 30.864708 17.290739 26.924464 17.521484 22.570312 C 17.889946 15.619412 24.438707 9.1132071 31.392578 8.7890625 C 39.789479 8.39792 46.685547 15.062204 46.685547 23.365234 C 46.685547 27.533408 44.940556 31.277017 42.140625 33.935547 C 40.442936 35.547088 39.589844 37.814299 39.589844 40.101562 L 39.589844 42.132812 C 39.589844 45.387278 36.971261 48.003906 33.716797 48.003906 L 32.193359 48.003906 L 27.822266 48.003906 C 26.187637 48.003906 24.842131 49.353863 24.849609 50.990234 C 24.855609 52.616791 26.196167 53.951172 27.822266 53.951172 L 36.521484 53.951172 C 37.070812 53.951172 37.496094 54.376454 37.496094 54.925781 L 37.496094 55.025391 C 37.496094 55.574718 37.070812 56 36.521484 56 L 27.990234 56 A 1.0001 1.0001 0 1 0 27.990234 58 L 36.521484 58 C 38.152157 58 39.496094 56.656063 39.496094 55.025391 L 39.496094 54.925781 C 39.496094 53.295108 38.152157 51.951172 36.521484 51.951172 L 27.822266 51.951172 C 27.274364 51.951172 26.851624 51.529865 26.849609 50.982422 A 1.0001 1.0001 0 0 0 26.849609 50.980469 C 26.847109 50.42884 27.270894 50.003906 27.822266 50.003906 L 32.193359 50.003906 L 33.716797 50.003906 C 38.052333 50.003906 41.589844 46.468348 41.589844 42.132812 L 41.589844 40.101562 C 41.589844 38.312826 42.259268 36.581177 43.517578 35.386719 C 46.697647 32.367249 48.685547 28.093061 48.685547 23.365234 C 48.685547 13.950265 40.805927 6.3481581 31.298828 6.7910156 z M 29.5 25 C 30.216667 25 31 25.416667 31 27 L 31 30.177734 C 30.353607 30.034393 29.655288 29.96798 29.1875 29.59375 C 28.461618 29.013044 28 28.222222 28 27 C 28 25.416667 28.783333 25 29.5 25 z"/></svg>