<svg xmlns="http://www.w3.org/2000/svg"  viewBox="0 0 64 64" width="64px" height="64px"><path d="M 31.666016 7.6660156 C 25.128626 7.6660156 21.028047 10.783882 18.832031 15.269531 C 16.766828 19.487978 16.269575 24.852627 16.210938 30.228516 C 14.241796 30.255136 11.592817 30.224512 10.232422 30.169922 A 1.0001 1.0001 0 0 0 9.4492188 31.837891 C 11.088817 33.660195 12.9391 36.473604 13.21875 39.125 C 13.761456 44.273789 15.258789 49.259862 18.304688 53.011719 C 21.350585 56.763575 25.986326 59.195411 32.388672 59.169922 C 40.151842 59.139202 44.870444 55.425065 47.527344 50.974609 C 50.184244 46.524154 50.921634 41.385379 51.253906 38.214844 C 51.594222 34.968144 54.210938 31.392578 54.210938 31.392578 A 1.0001 1.0001 0 0 0 53.414062 29.787109 L 47.675781 29.787109 C 47.620847 27.381726 47.37532 24.26281 46.59375 21.09375 C 45.78701 17.822629 44.418341 14.497306 42.041016 11.943359 C 39.66369 9.389413 36.243102 7.6660156 31.666016 7.6660156 z M 31.666016 9.6660156 C 35.755929 9.6660156 38.533826 11.110462 40.578125 13.306641 C 42.622424 15.502819 43.897084 18.509886 44.652344 21.572266 C 45.383897 24.538521 45.615158 27.496521 45.669922 29.787109 L 39.169922 29.787109 C 36.32538 29.787109 33.725521 31.298166 31.753906 33.455078 C 29.280063 31.283602 26.18536 30.025391 23.365234 30.025391 A 1.0001 1.0001 0 1 0 23.365234 32.025391 C 25.572547 32.025391 28.310618 33.088301 30.441406 34.960938 C 30.498166 35.010818 30.526146 35.087735 30.582031 35.138672 C 29.16707 37.261297 28.163221 39.716391 28.199219 42.349609 C 28.223809 44.138618 28.646053 45.589989 29.347656 46.65625 C 30.049259 47.722511 31.06506 48.419979 32.183594 48.498047 C 33.302128 48.576117 34.414654 47.971792 35.115234 46.927734 C 35.815815 45.883677 36.184577 44.426967 36.152344 42.556641 C 36.100061 39.522908 34.731414 37.046899 32.970703 35 C 34.666562 33.032131 36.921214 31.787109 39.169922 31.787109 L 45.640625 31.787109 C 45.608725 32.587654 45.585937 33.904297 45.585938 33.904297 A 1.0001 1.0001 0 1 0 47.576172 34.095703 C 47.576172 34.095703 47.606558 32.689372 47.642578 31.787109 L 51.595703 31.787109 C 50.69717 33.199844 49.550165 35.291274 49.265625 38.005859 C 48.942897 41.085324 48.199897 45.946924 45.810547 49.949219 C 43.421197 53.951513 39.52969 57.141637 32.380859 57.169922 C 26.475205 57.193432 22.555274 55.075097 19.857422 51.751953 C 17.159569 48.428809 15.723325 43.814227 15.207031 38.916016 C 14.931989 36.308302 13.57653 34.069741 12.158203 32.1875 C 13.845121 32.22643 15.70611 32.280655 17.179688 32.234375 A 1.0001 1.0001 0 0 0 18.148438 31.234375 C 18.148438 25.639617 18.684672 20.119789 20.628906 16.148438 C 22.57314 12.177086 25.730406 9.6660156 31.666016 9.6660156 z M 31.888672 36.798828 C 33.145223 38.442113 34.113156 40.317912 34.152344 42.591797 C 34.179614 44.17397 33.845466 45.230714 33.455078 45.8125 C 33.06469 46.394286 32.69756 46.52801 32.324219 46.501953 C 31.950878 46.475893 31.461147 46.227786 31.019531 45.556641 C 30.577916 44.885496 30.219629 43.807257 30.199219 42.322266 C 30.172499 40.367792 30.896852 38.493058 31.888672 36.798828 z"/></svg>