<svg xmlns="http://www.w3.org/2000/svg"  viewBox="0 0 64 64" width="64px" height="64px"><path d="M 26.886719 4.84375 C 25.22567 4.902957 23.457156 5.286498 21.605469 6.0800781 C 15.489321 8.7013586 12.900245 12.892109 12.617188 17.480469 C 12.362433 21.610019 13.877316 25.984811 15.695312 30.222656 C 13.792056 30.234716 11.475486 30.219752 10.232422 30.169922 A 1.0001 1.0001 0 0 0 9.4492188 31.837891 C 11.088817 33.660195 12.9391 36.473604 13.21875 39.125 C 13.761456 44.273789 15.258789 49.259862 18.304688 53.011719 C 21.350585 56.763575 25.986326 59.195411 32.388672 59.169922 C 40.151842 59.139202 44.870444 55.425065 47.527344 50.974609 C 50.184244 46.524154 50.921634 41.385379 51.253906 38.214844 C 51.594222 34.968144 54.210938 31.392578 54.210938 31.392578 A 1.0001 1.0001 0 0 0 53.414062 29.787109 L 39.169922 29.787109 C 36.32538 29.787109 33.725521 31.298166 31.753906 33.455078 C 29.280063 31.283602 26.18536 30.025391 23.365234 30.025391 A 1.0001 1.0001 0 1 0 23.365234 32.025391 C 25.572547 32.025391 28.310618 33.088301 30.441406 34.960938 C 30.498166 35.010818 30.526146 35.087735 30.582031 35.138672 C 29.16707 37.261297 28.163221 39.716391 28.199219 42.349609 C 28.223809 44.138618 28.646053 45.589989 29.347656 46.65625 C 30.049259 47.722511 31.06506 48.419979 32.183594 48.498047 C 33.302128 48.576117 34.414654 47.971792 35.115234 46.927734 C 35.815815 45.883677 36.184577 44.426967 36.152344 42.556641 C 36.100061 39.522908 34.731414 37.046899 32.970703 35 C 34.666562 33.032131 36.921214 31.787109 39.169922 31.787109 L 51.595703 31.787109 C 50.69717 33.199844 49.550165 35.291274 49.265625 38.005859 C 48.942897 41.085324 48.199897 45.946924 45.810547 49.949219 C 43.421197 53.951513 39.52969 57.141637 32.380859 57.169922 C 26.475205 57.193432 22.555274 55.075097 19.857422 51.751953 C 17.159569 48.428809 15.723325 43.814227 15.207031 38.916016 C 14.931989 36.308302 13.57653 34.069741 12.158203 32.1875 C 13.845121 32.22643 15.70611 32.280655 17.179688 32.234375 A 1.0001 1.0001 0 0 0 18.060547 30.824219 C 16.007429 26.254312 14.368839 21.565906 14.613281 17.603516 C 14.857723 13.641125 16.769679 10.330641 22.394531 7.9199219 C 25.691157 6.5070822 28.445308 6.5820296 30.851562 7.4414062 C 33.257818 8.3007829 35.322833 9.9936728 36.998047 11.908203 C 40.348475 15.737264 42.0625 20.345703 42.0625 20.345703 A 1.0001 1.0001 0 1 0 43.9375 19.654297 C 43.9375 19.654297 42.151525 14.762736 38.501953 10.591797 C 36.677167 8.5063322 34.367182 6.5742171 31.523438 5.5585938 C 30.101565 5.0507821 28.547768 4.7845429 26.886719 4.84375 z M 31.888672 36.798828 C 33.145223 38.442113 34.113156 40.317912 34.152344 42.591797 C 34.179614 44.17397 33.845466 45.230714 33.455078 45.8125 C 33.06469 46.394286 32.69756 46.52801 32.324219 46.501953 C 31.950878 46.475893 31.461147 46.227786 31.019531 45.556641 C 30.577916 44.885496 30.219629 43.807257 30.199219 42.322266 C 30.172499 40.367792 30.896852 38.493058 31.888672 36.798828 z"/></svg>