<svg xmlns="http://www.w3.org/2000/svg"  viewBox="0 0 64 64" width="64px" height="64px"><path d="M 32.419922 5.9824219 C 32.2415 5.9835904 32.062292 6.0006694 31.884766 6.0332031 C 30.464551 6.2934728 29.284935 7.3939776 28.488281 8.953125 C 28.261061 9.3978232 28.140093 9.9713686 27.976562 10.496094 C 22.609403 10.897677 18.590392 11.525224 16.355469 12.363281 C 14.920097 12.901521 13.969367 13.487675 13.337891 14.126953 C 12.706414 14.766231 12.408203 15.492771 12.408203 16.132812 C 12.408203 17.130959 13.07279 17.925984 13.955078 18.529297 C 14.837366 19.132609 16.031036 19.628275 17.566406 20.044922 C 20.637147 20.878216 25.083032 21.371146 30.914062 21.230469 C 35.58218 21.117839 39.33239 20.851977 42.025391 20.294922 C 43.371891 20.016394 44.456676 19.674525 45.304688 19.167969 C 46.152698 18.661412 46.82467 17.859463 46.869141 16.882812 C 46.891421 16.392232 46.656232 15.941747 46.382812 15.652344 C 46.109393 15.362941 45.794361 15.17206 45.447266 15.003906 C 44.753075 14.6676 43.901395 14.43628 42.919922 14.248047 C 41.22855 13.923665 39.145694 13.832259 37.166016 13.826172 C 37.132086 13.238527 37.060723 12.716901 36.986328 12.199219 C 44.13221 12.417694 48.511569 13.65205 50.125 14.996094 C 51.093087 15.802544 51.205761 16.357886 50.927734 17.103516 C 50.649708 17.849145 49.695268 18.852761 48.029297 19.730469 A 1.0001 1.0001 0 0 0 47.496094 20.585938 L 46.539062 52.478516 C 46.494552 52.994038 46.194338 53.492093 45.480469 54.029297 C 44.7666 54.566501 43.670724 55.073275 42.330078 55.478516 C 39.648787 56.288998 36.005555 56.710957 32.390625 56.703125 C 28.775695 56.695325 25.172496 56.256752 22.576172 55.445312 C 21.27801 55.039594 20.237622 54.535701 19.591797 54.017578 C 18.945972 53.499455 18.717604 53.061375 18.720703 52.572266 A 1.0001 1.0001 0 0 0 18.720703 52.529297 L 17.769531 26.310547 L 17.771484 26.314453 C 17.750884 25.642655 17.956621 25.306235 18.267578 25.056641 C 18.578535 24.807046 19.05977 24.668711 19.580078 24.720703 C 20.620693 24.824686 21.713166 25.526282 21.757812 27.394531 L 22.277344 49.078125 C 22.306074 50.271349 22.809148 51.282324 23.558594 51.923828 C 24.30804 52.565332 25.257098 52.854429 26.1875 52.839844 C 27.117902 52.825264 28.055919 52.506575 28.787109 51.847656 C 29.518252 51.188744 30 50.170355 30 48.984375 L 30 27.275391 C 30 26.534819 30.243141 26.100324 30.599609 25.783203 C 30.956078 25.466082 31.472462 25.283539 32 25.28125 C 32.527538 25.27895 33.038773 25.457795 33.394531 25.771484 C 33.75029 26.085174 33.997373 26.516996 34 27.267578 L 34.072266 49.121094 C 34.076466 50.314227 34.590571 51.334604 35.351562 51.974609 C 36.112555 52.614614 37.071632 52.902135 38.017578 52.898438 C 38.963524 52.894737 39.921875 52.600196 40.685547 51.962891 C 41.449215 51.325585 41.976568 50.315234 42 49.126953 A 1.0001 1.0001 0 0 0 42 49.121094 L 42.306641 27.417969 A 1.0001 1.0001 0 0 0 42.306641 27.382812 C 42.306641 27.382812 42.294091 26.695387 42.482422 25.851562 C 42.670749 25.007738 43.068647 24.114243 43.6875 23.666016 A 1.0001 1.0001 0 1 0 42.513672 22.046875 C 41.275525 22.943648 40.775173 24.32309 40.53125 25.416016 C 40.287327 26.508941 40.306641 27.423828 40.306641 27.423828 L 40 49.087891 C 39.98693 49.75061 39.75675 50.133602 39.404297 50.427734 C 39.051844 50.721866 38.534819 50.896385 38.009766 50.898438 C 37.484712 50.900537 36.978806 50.729417 36.638672 50.443359 C 36.298538 50.157302 36.074605 49.784148 36.072266 49.113281 L 36 27.261719 C 35.9956 26.012301 35.489304 24.95092 34.71875 24.271484 C 33.948196 23.592049 32.960947 23.277039 31.990234 23.28125 C 31.019522 23.28545 30.037828 23.607309 29.271484 24.289062 C 28.505141 24.970816 28 26.031963 28 27.275391 L 28 48.984375 C 28 49.668395 27.776873 50.06606 27.449219 50.361328 C 27.121565 50.656597 26.645223 50.832179 26.15625 50.839844 C 25.667277 50.847544 25.191523 50.688605 24.859375 50.404297 C 24.527227 50.119988 24.294118 49.726072 24.277344 49.029297 L 23.757812 27.347656 C 23.692463 24.612905 21.733432 22.925735 19.779297 22.730469 C 18.80223 22.632839 17.799262 22.867095 17.015625 23.496094 C 16.231988 24.125093 15.734586 25.173751 15.771484 26.376953 A 1.0001 1.0001 0 0 0 15.771484 26.382812 L 16.720703 52.601562 L 16.720703 52.558594 C 16.713003 53.766235 17.391356 54.817186 18.339844 55.578125 C 19.288331 56.339064 20.530177 56.902814 21.978516 57.355469 C 24.875192 58.260779 28.617149 58.694957 32.386719 58.703125 C 36.156289 58.711325 39.936494 58.292799 42.908203 57.394531 C 44.394058 56.945397 45.68315 56.379812 46.683594 55.626953 C 47.684037 54.874095 48.42846 53.863618 48.533203 52.650391 A 1.0001 1.0001 0 0 0 48.535156 52.595703 L 49.480469 21.144531 C 51.088008 20.203405 52.306805 19.12751 52.800781 17.802734 C 53.353567 16.320239 52.808381 14.627034 51.40625 13.458984 C 49.022526 11.473262 44.196539 10.306718 36.583984 10.173828 C 36.343379 9.3761152 36.091813 8.5956832 35.728516 8.0195312 C 34.909504 6.7206648 33.668873 5.9742422 32.419922 5.9824219 z M 32.683594 7.984375 C 33.120419 8.0367327 33.558197 8.326431 34.037109 9.0859375 C 34.194753 9.3359446 34.311045 9.8011124 34.451172 10.15625 C 33.755614 10.16235 33.19914 10.115912 32.458984 10.138672 C 31.489702 10.168482 30.996329 10.28016 30.119141 10.326172 C 30.178411 10.187852 30.205211 9.9891673 30.269531 9.8632812 C 30.87144 8.6852724 31.657559 8.1098085 32.246094 8.0019531 C 32.393228 7.9749893 32.537985 7.9669224 32.683594 7.984375 z M 32.519531 12.138672 C 33.43699 12.110452 34.13165 12.170215 34.976562 12.171875 C 35.109412 12.956899 35.250547 13.73408 35.267578 14.773438 A 1.0001 1.0001 0 0 0 36.291016 15.755859 C 38.407098 15.705019 40.780415 15.872903 42.542969 16.210938 C 43.424246 16.379953 44.158425 16.600354 44.576172 16.802734 C 44.683447 16.854704 44.697975 16.877154 44.757812 16.917969 C 44.721983 17.063407 44.700462 17.199591 44.279297 17.451172 C 43.758965 17.76199 42.844516 18.082465 41.619141 18.335938 C 39.168391 18.842882 35.481117 19.119099 30.865234 19.230469 C 25.173265 19.367791 20.878353 18.869987 18.089844 18.113281 C 16.695589 17.734928 15.678727 17.285594 15.083984 16.878906 C 14.489241 16.472219 14.408203 16.191667 14.408203 16.132812 C 14.408203 16.068352 14.414803 15.882394 14.759766 15.533203 C 15.104695 15.184012 15.802887 14.706464 17.056641 14.236328 C 18.932689 13.532843 22.636746 12.942744 27.539062 12.537109 C 27.443713 13.333321 27.342142 14.128856 27.392578 15.037109 A 1.0005731 1.0005731 0 1 0 29.390625 14.925781 C 29.338015 13.978305 29.420305 13.149158 29.541016 12.376953 C 30.628221 12.311333 31.27502 12.176948 32.519531 12.138672 z"/></svg>